<svg width="200" height="155" viewBox="0 0 200 155" fill="none" xmlns="http://www.w3.org/2000/svg">
<path d="M181.889 97.3013C174.03 91.6387 164.613 88.899 155.941 84.798C147.603 80.8531 141.669 74.5155 134.208 69.2934C122.021 60.7593 107.927 54.3611 93.5881 50.4561C79.0863 46.5069 61.3744 44.3203 48.1541 53.0732C41.6534 57.3781 36.3628 64.0549 34.2068 71.5948C31.641 80.5666 34.1519 89.7329 35.3821 98.699C36.3799 105.984 31.7045 110.004 26.1937 114.144C13.2934 123.837 13.6497 141.377 21.6216 153.949H187.697C197.558 136.083 201.895 111.716 181.889 97.3013Z" fill="#F1F1F1"/>
<path d="M37.5436 154C21.5758 146.087 21.4288 132.238 28.3672 122.032C36.0925 110.662 54.1987 101.303 78.046 96.3549C78.6224 96.236 79.2022 96.1177 79.7853 96L80 96.3599C79.4236 96.4763 78.8472 96.5943 78.2708 96.7131C54.6022 101.625 36.6357 110.904 28.9883 122.171C22.1349 132.256 22.2588 145.92 37.9802 153.71L37.5436 154Z" fill="#DADADA"/>
<path d="M175.714 155L175.229 154.81C185.15 140.317 191.026 125.7 192.222 112.54C193.4 99.5665 189.977 88.8658 182.321 81.5956C175.372 74.9978 161.545 68.1677 135.132 73.0999L135 72.6981C161.696 67.7131 175.703 74.6452 182.752 81.3386C190.496 88.6908 193.96 99.49 192.771 112.568C191.565 125.783 185.669 140.456 175.714 155Z" fill="#DADADA"/>
<path d="M32.8762 75.925L32.5903 75.8823C32.5732 75.7566 32.1808 72.7419 32.5301 68.5087C32.8518 64.6093 33.9 58.9196 37.0579 53.9607C40.6748 48.2808 46.2486 44.7215 53.6245 43.3809C62.8557 41.7043 74.9473 43.5186 89.5639 48.7757L89.587 49.2311C75.0013 43.9861 62.941 42.1749 53.7421 43.8489C46.412 45.1798 40.8793 48.7109 37.295 54.3453C34.1747 59.2442 33.1397 64.8555 32.8225 68.7075C32.4766 72.8629 32.8719 75.8944 32.8762 75.925Z" fill="#DADADA"/>
<path d="M261.739 153.399H-67.1758V154.218H261.739V153.399Z" fill="#8692A6"/>
<path d="M76.0201 103.364C76.0201 103.364 75.8001 98.852 69.4121 96.448C69.4121 96.448 70.4001 102.544 76.0201 103.364Z" fill="#48BE97"/>
<path d="M75.5128 111.344C75.5128 111.344 74.8488 105.52 66.3809 102.944C66.4009 102.948 68.1729 110.752 75.5128 111.344Z" fill="#48BE97"/>
<path d="M77.6284 122.892C77.6284 122.892 76.6684 116.136 66.7324 113.416C66.7324 113.416 69.0684 122.44 77.6284 122.892Z" fill="#48BE97"/>
<path d="M84.5646 134.996C84.5646 134.996 80.8006 127.696 68.4326 128.536C68.4326 128.536 74.6606 137.868 84.5646 134.996Z" fill="#48BE97"/>
<path d="M76 103.452C76 103.452 76.876 99.0161 83.544 97.5681C83.552 97.5681 81.688 103.456 76 103.452Z" fill="#48BE97"/>
<path d="M75.3486 111.42C75.3486 111.42 76.8566 105.756 85.6086 104.44C85.6006 104.44 82.7006 111.904 75.3486 111.42Z" fill="#48BE97"/>
<path d="M77.4681 122.84C77.4681 122.84 76.6201 116.068 85.4921 110.84C85.4921 110.832 85.6001 120.152 77.4681 122.84Z" fill="#48BE97"/>
<path d="M84.0207 135.068C84.0207 135.068 80.7087 127.556 89.1327 118.46C89.1327 118.46 92.4807 129.168 84.0207 135.068Z" fill="#48BE97"/>
<path d="M76.1128 103.228C76.1128 103.228 69.8648 129.248 98.4648 147.844" stroke="#48BE97" strokeWidth="2.01" stroke-miterlimit="10" strokeLinecap="round"/>
<path d="M123.236 111.716C123.236 111.716 124.076 107.276 130.732 105.78C130.732 105.78 128.912 111.676 123.236 111.716Z" fill="#48BE97"/>
<path d="M122.473 119.764C122.473 119.764 123.937 114.088 132.677 112.708C132.677 112.708 129.825 120.192 122.473 119.764Z" fill="#48BE97"/>
<path d="M119.013 130.64C119.013 130.64 122.529 124.792 132.737 126.156C132.737 126.156 127.073 133.556 119.013 130.64Z" fill="#48BE97"/>
<path d="M110.757 141.86C110.757 141.86 116.721 136.212 128.117 141.092C128.117 141.092 119.157 147.844 110.757 141.86Z" fill="#48BE97"/>
<path d="M123.232 111.8C123.232 111.8 122.98 107.288 116.576 104.932C116.576 104.932 117.6 111.02 123.232 111.8Z" fill="#48BE97"/>
<path d="M122.472 119.744C122.472 119.744 121.768 113.924 113.272 111.408C113.28 111.408 115.128 119.2 122.472 119.744Z" fill="#48BE97"/>
<path d="M119.104 130.8C119.104 130.8 120.88 124.212 112.82 117.8C112.82 117.8 111.416 127.012 119.104 130.8Z" fill="#48BE97"/>
<path d="M110.92 142C110.92 142 115.24 135.016 108.156 124.84C108.156 124.848 103.36 134.988 110.92 142Z" fill="#48BE97"/>
<path d="M123.16 111.564C123.16 111.564 124.076 133.428 106.956 144.948" stroke="#48BE97" strokeWidth="2.01" stroke-miterlimit="10" strokeLinecap="round"/>
<path d="M41.2882 153.728C43.2202 149.54 46.6602 137.252 41.3602 134.684C38.0402 133.084 37.0642 135.832 37.0642 135.832C37.0642 135.832 39.4642 122.392 33.7722 122.364C30.4562 122.344 29.8962 126.156 29.8962 126.156C29.8962 126.156 28.0922 121.952 25.8962 120.732C21.0962 118.076 15.3882 120.82 19.8122 128.332C20.5993 129.629 21.5648 130.808 22.6802 131.836C22.6802 131.836 17.6762 129.952 17.1882 133.528C16.7002 137.104 26.1682 142.8 26.1682 142.8C26.1682 142.8 23.3322 142.908 23.2202 146.184C23.0682 150.612 32.2122 153.744 32.2122 153.744L41.2882 153.728Z" fill="#36A871"/>
<path d="M23.2002 124C29.4202 133.12 34.5282 135.828 38.6842 152.8" stroke="white" strokeWidth="0.79" stroke-miterlimit="10" strokeLinecap="round"/>
<path d="M45.5086 153.728C45.3046 147.5 54.4926 134.568 48.9286 131.432C45.4366 129.464 44.4526 133.032 44.4526 133.032C44.4526 133.032 52.3126 119.708 44.7926 118.816C42.1686 118.504 40.6486 122.336 40.6486 122.336C40.6486 122.336 40.5846 115.476 38.4886 112.908C35.0606 108.716 27.8926 111.056 29.5846 120.108C30.5126 125.064 33.9166 127.024 33.9166 127.024C33.9166 127.024 30.4726 124.396 28.8286 127.848C26.6286 132.472 34.0286 138.448 34.0286 138.448C34.0286 138.448 30.7246 136 28.5446 140C25.5766 145.384 36.8006 153.728 36.8006 153.728H45.5086Z" fill="#48BE97"/>
<path d="M35.5605 117.872C39.7685 128.56 41.9605 140.272 42.8725 152.672" stroke="white" strokeWidth="0.79" stroke-miterlimit="10" strokeLinecap="round"/>
<path d="M156.061 153.728C157.429 148.672 150.833 138.712 155.957 136.164C159.157 134.564 160.893 136.204 160.893 136.204C160.893 136.204 157.113 126.164 163.385 125.44C163.982 125.356 164.59 125.479 165.109 125.787C165.627 126.095 166.025 126.571 166.237 127.136C166.237 127.136 167.105 124.164 169.437 122.296C173.881 118.76 179.673 120.072 176.557 127.408C174.849 131.436 173.497 132.024 173.497 132.024C173.497 132.024 176.589 131.424 177.253 134.228C178.149 137.984 170.749 144.268 170.749 144.268C170.749 144.268 173.409 144.52 173.757 146.508C174.533 150.908 165.205 153.728 165.205 153.728H156.061Z" fill="#36A871"/>
<path d="M174.544 123.032C166.028 129.944 165.712 144.012 161.4 152.136" stroke="white" strokeWidth="0.72" stroke-miterlimit="10" strokeLinecap="round"/>
<path d="M152.208 153.728C149.128 148.656 142.42 133.784 147.336 130.672C150.42 128.72 152.136 132.06 152.136 132.06C152.136 132.06 146.228 115.788 152.196 115.756C155.676 115.736 157.224 120.348 157.224 120.348C157.224 120.348 158.404 115.572 160.06 112.704C163.868 106.104 172.8 108.74 169.66 119.22C168.86 121.872 166.46 125.244 166.46 125.244C166.46 125.244 172.008 124.912 171.86 129.712C171.72 134.264 164.032 138.548 164.032 138.548C164.032 138.548 169.144 137.408 170.088 141.376C171.36 146.736 160.088 153.728 160.088 153.728H152.208Z" fill="#48BE97"/>
<path d="M165.401 115.336C161.109 129.892 154.817 132.06 154.725 152.616" stroke="white" strokeWidth="0.72" stroke-miterlimit="10" strokeLinecap="round"/>
<path d="M100.044 115.948C100.044 115.948 100.392 112.864 104.872 111.496C104.872 111.496 103.928 115.632 100.044 115.948Z" fill="#36A871"/>
<path d="M100.044 121.44C100.044 121.44 100.752 117.476 106.668 116.084C106.668 116.084 105.1 121.356 100.044 121.44Z" fill="#36A871"/>
<path d="M98.0889 129.256C98.0889 129.256 99.0449 124.672 105.969 123.256C105.969 123.244 103.973 129.324 98.0889 129.256Z" fill="#36A871"/>
<path d="M92.8008 137.248C92.8008 137.248 95.7008 132.412 104.141 133.528C104.145 133.528 99.4688 139.648 92.8008 137.248Z" fill="#36A871"/>
<path d="M100.049 116C100.049 116 99.6487 112.924 95.1367 111.64C95.1367 111.648 96.1567 115.764 100.049 116Z" fill="#36A871"/>
<path d="M100.153 121.496C100.153 121.496 99.3527 117.548 93.4287 116.264C93.4287 116.264 95.0927 121.508 100.153 121.496Z" fill="#36A871"/>
<path d="M98.2 129.228C98.2 129.228 99.076 124.628 93.228 120.652C93.228 120.652 92.74 127.032 98.2 129.228Z" fill="#36A871"/>
<path d="M93.1764 137.32C93.1764 137.32 95.7725 132.32 90.4004 125.72C90.4004 125.716 87.6364 132.908 93.1764 137.32Z" fill="#36A871"/>
<path d="M100 115.848C100 115.848 103.14 133.952 82.7324 145.448" stroke="#36A871" strokeWidth="1.38" stroke-miterlimit="10" strokeLinecap="round"/>
<path d="M100.533 153.728H94.6407C90.5407 153.728 84.1607 142.244 84.1607 137.792C84.1607 133.34 90.5167 121.636 94.6407 121.636H100.533C105.757 121.636 109.881 123.26 112.793 126.464C115.593 129.548 117.017 133.356 117.017 137.792C117.017 142.228 115.577 146.048 112.745 149.064C109.833 152.16 105.725 153.728 100.533 153.728ZM84.9327 107.772L85.0247 103.164C85.1807 95.204 86.2607 88.992 88.3247 84.172C90.3887 79.352 94.3927 74.172 100.505 68.548L100.601 68.46L114.761 56.108C119.921 51.148 122.425 46.108 122.425 40.68C122.425 35.524 120.949 31.664 117.913 28.884C114.801 26.04 110.001 24.6 103.601 24.6C97.2007 24.6 92.1327 25.976 88.4527 28.692C85.1047 31.164 83.5487 34.256 83.5487 38.42V42.94H54.3047L54.3727 38.356C54.5367 26.968 59.3767 17.66 68.7527 10.688C77.7367 4.00002 89.4567 0.624023 103.601 0.624023C118.301 0.624023 130.033 4.10802 138.473 10.98C147.169 18.08 151.601 27.884 151.601 40.116C151.601 52.152 145.165 63.972 132.469 75.248L132.373 75.332L120.613 85.2C116.289 89.312 114.189 95.224 114.189 103.268V107.788L84.9327 107.772Z" fill="#023747"/>
<path d="M94.6404 153.728C89.4404 153.728 85.3364 152.148 82.4564 149.036C79.6764 146.028 78.2684 142.236 78.2684 137.792C78.2684 133.348 79.6604 129.568 82.4084 126.492C85.2844 123.268 89.4004 121.636 94.6404 121.636C99.8804 121.636 103.984 123.26 106.9 126.464C109.7 129.548 111.12 133.356 111.12 137.792C111.12 142.228 109.684 146.048 106.848 149.064C103.936 152.16 99.8284 153.728 94.6404 153.728ZM79.0404 107.772L79.1324 103.164C79.2884 95.204 80.3684 88.992 82.4284 84.172C84.4884 79.352 88.4964 74.172 94.6084 68.548L94.7044 68.46L108.868 56.108C114.024 51.148 116.532 46.108 116.532 40.68C116.532 35.524 115.056 31.664 112.02 28.884C108.912 26.04 104.084 24.6 97.6764 24.6C91.2684 24.6 86.2084 25.976 82.5324 28.692C79.1844 31.164 77.6244 34.256 77.6244 38.42V42.94H48.4004L48.4644 38.356C48.6324 26.968 53.4684 17.66 62.8644 10.688C71.8444 4.00002 83.5604 0.624023 97.6844 0.624023C112.384 0.624023 124.12 4.10802 132.56 10.98C141.276 18.08 145.696 27.884 145.696 40.116C145.696 52.152 139.256 63.972 126.564 75.248L126.464 75.332L114.716 85.2C110.4 89.296 108.292 95.2 108.292 103.252V107.772H79.0404Z" fill="#004054"/>
<path d="M77.5048 153.728C77.5048 153.728 77.7288 148.148 72.4648 143.988C72.4648 143.988 79.8168 144.788 80.4128 153.728H77.5048Z" fill="#48BE97"/>
<path d="M78.2803 153.728C78.2803 153.728 77.6003 144.48 85.8323 142.572C85.8323 142.572 81.0923 145.908 80.6323 153.728H78.2803Z" fill="#36A871"/>
<path d="M78.2803 153.728C78.2803 153.728 80.1523 145.48 87.9603 145.776C87.9603 145.776 82.0523 149.092 81.7083 153.728H78.2803Z" fill="#48BE97"/>
<path d="M117.884 153.728C117.884 153.728 116.836 150.24 121.484 148.348C121.484 148.348 116.216 147.332 115.788 153.728H117.884Z" fill="#48BE97"/>
<path d="M117.329 153.728C117.329 153.728 116.357 149.836 118.373 144.988C118.373 144.988 114.641 146.824 115.653 153.728H117.329Z" fill="#36A871"/>
<path d="M117.329 153.728C117.329 153.728 117.029 149.272 111.437 149.484C111.437 149.484 115.437 150.78 114.873 153.728H117.329Z" fill="#48BE97"/>
</svg>
